<?xml version="1.0" encoding="utf-8"?>
<!-- Generator: Adobe Illustrator 24.2.1, SVG Export Plug-In . SVG Version: 6.00 Build 0)  -->
<svg version="1.1" id="Calque_1" xmlns="http://www.w3.org/2000/svg" xmlns:xlink="http://www.w3.org/1999/xlink" x="0px" y="0px"
	 viewBox="0 0 220 42" width="220px" height="42px" style="enable-background:new 0 0 220 41.8;" xml:space="preserve">
<style type="text/css">
	.st0{fill:#FFFFFF;}
	.st1{clip-path:url(#SVGID_4_);fill:#FFFFFF;}
	.st2{clip-path:url(#SVGID_8_);fill:#FFFFFF;}
	.st3{clip-path:url(#SVGID_12_);fill:#FFFFFF;}
	.st4{clip-path:url(#SVGID_16_);fill:#FFFFFF;}
	.st5{clip-path:url(#SVGID_20_);fill:#FFFFFF;}
	.st6{clip-path:url(#SVGID_24_);fill:#FFFFFF;}
	.st7{clip-path:url(#SVGID_28_);fill:#FFFFFF;}
	.st8{clip-path:url(#SVGID_32_);fill:#FFFFFF;}
	.st9{clip-path:url(#SVGID_36_);fill:#FFFFFF;}
	.st10{clip-path:url(#SVGID_40_);fill:#FFFFFF;}
	.st11{clip-path:url(#SVGID_44_);fill:#FFFFFF;}
	.st12{clip-path:url(#SVGID_46_);fill:#FFFFFF;}
	.st13{clip-path:url(#SVGID_48_);fill:#FFFFFF;}
	.st14{clip-path:url(#SVGID_50_);fill:#FFFFFF;}
	.st15{clip-path:url(#SVGID_52_);fill:#FFFFFF;}
</style>
<g>
	<polygon class="st0" points="50.9,13 53,14.1 57.9,13.8 55,12.1 	"/>
	<polygon class="st0" points="47.5,11 49.1,12.1 52.2,10.5 49.7,9 	"/>
	<g>
		<g>
			<polygon id="SVGID_1_" class="st0" points="47.5,11 49.1,12.1 52.2,10.5 49.7,9 			"/>
		</g>
		<g>
			<g>
				<defs>
					<polygon id="SVGID_2_" points="47.5,11 49.1,12.1 52.2,10.5 49.7,9 					"/>
				</defs>
				<clipPath id="SVGID_4_">
					<use xlink:href="#SVGID_2_"  style="overflow:visible;"/>
				</clipPath>
				<polygon class="st1" points="50.9,13.4 45.3,11.2 48.7,7.7 54.2,9.9 				"/>
			</g>
		</g>
	</g>
	<polygon class="st0" points="44,9 45.6,10.1 47.1,7.5 44.3,6.1 	"/>
	<g>
		<g>
			<polygon id="SVGID_3_" class="st0" points="44,9 45.6,10.1 47.1,7.5 44.3,6.1 			"/>
		</g>
		<g>
			<g>
				<defs>
					<polygon id="SVGID_6_" points="44,9 45.6,10.1 47.1,7.5 44.3,6.1 					"/>
				</defs>
				<clipPath id="SVGID_8_">
					<use xlink:href="#SVGID_6_"  style="overflow:visible;"/>
				</clipPath>
				<polygon class="st2" points="46.2,11 41,9 44.7,5.1 50,7.2 				"/>
			</g>
		</g>
	</g>
	<polygon class="st0" points="56.8,16.5 56.4,17.2 63.6,18.2 63.8,17.2 61.6,16 55.3,15.6 	"/>
	<g>
		<g>
			<polygon id="SVGID_5_" class="st0" points="56.8,16.5 56.4,17.2 63.6,18.2 63.8,17.2 61.6,16 55.3,15.6 			"/>
		</g>
		<g>
			<g>
				<defs>
					<polygon id="SVGID_10_" points="56.8,16.5 56.4,17.2 63.6,18.2 63.8,17.2 61.6,16 55.3,15.6 					"/>
				</defs>
				<clipPath id="SVGID_12_">
					<use xlink:href="#SVGID_10_"  style="overflow:visible;"/>
				</clipPath>
				<polygon class="st3" points="61.6,20.5 53.5,17.6 57.7,13.2 65.6,16.3 				"/>
			</g>
		</g>
	</g>
	<g>
		<g>
			<polygon id="SVGID_7_" class="st0" points="37.4,2 39.2,6.4 41.8,7.9 41.8,7.9 41.2,4.2 			"/>
		</g>
	</g>
	<polygon class="st0" points="30.8,1.8 35.2,6.6 36.8,5.9 33.3,0.9 	"/>
	<g>
		<g>
			<polygon id="SVGID_9_" class="st0" points="30.8,1.8 35.2,6.6 36.8,5.9 33.3,0.9 			"/>
		</g>
		<g>
			<g>
				<defs>
					<polygon id="SVGID_14_" points="30.8,1.8 35.2,6.6 36.8,5.9 33.3,0.9 					"/>
				</defs>
				<clipPath id="SVGID_16_">
					<use xlink:href="#SVGID_14_"  style="overflow:visible;"/>
				</clipPath>
				<polygon class="st4" points="35.2,8.4 26.7,5.1 32.2,-0.7 40.7,2.6 				"/>
			</g>
		</g>
	</g>
	<polygon class="st0" points="55.3,19.4 62.5,21.8 63,20.2 55.9,18.3 	"/>
	<g>
		<g>
			<polygon id="SVGID_11_" class="st0" points="55.3,19.4 62.5,21.8 63,20.2 55.9,18.3 			"/>
		</g>
		<g>
			<g>
				<defs>
					<polygon id="SVGID_18_" points="55.3,19.4 62.5,21.8 63,20.2 55.9,18.3 					"/>
				</defs>
				<clipPath id="SVGID_20_">
					<use xlink:href="#SVGID_18_"  style="overflow:visible;"/>
				</clipPath>
				<polygon class="st5" points="61,24 52.8,20.9 57.4,16.1 65.4,19.3 				"/>
			</g>
		</g>
	</g>
	<polygon class="st0" points="54.2,21.3 61.6,25.5 61.9,23.7 54.8,20.4 	"/>
	<g>
		<g>
			<polygon id="SVGID_13_" class="st0" points="54.2,21.3 61.6,25.5 61.9,23.7 54.8,20.4 			"/>
		</g>
		<g>
			<g>
				<defs>
					<polygon id="SVGID_22_" points="54.2,21.3 61.6,25.5 61.9,23.7 54.8,20.4 					"/>
				</defs>
				<clipPath id="SVGID_24_">
					<use xlink:href="#SVGID_22_"  style="overflow:visible;"/>
				</clipPath>
				<polygon class="st6" points="59.9,27.7 50.6,24 56.3,18.2 65.6,21.8 				"/>
			</g>
		</g>
	</g>
	<polygon class="st0" points="25.8,3.3 32.6,7.9 33.9,7.3 28.2,2.6 	"/>
	<g>
		<g>
			<polygon id="SVGID_15_" class="st0" points="25.8,3.3 32.6,7.9 33.9,7.3 28.2,2.6 			"/>
		</g>
		<g>
			<g>
				<defs>
					<polygon id="SVGID_26_" points="25.8,3.3 32.6,7.9 33.9,7.3 28.2,2.6 					"/>
				</defs>
				<clipPath id="SVGID_28_">
					<use xlink:href="#SVGID_26_"  style="overflow:visible;"/>
				</clipPath>
				<polygon class="st7" points="31.7,10.1 22,6.4 28,0.2 37.5,4 				"/>
			</g>
		</g>
	</g>
	<polygon class="st0" points="53,23.7 60.3,29.9 61,27.5 53.7,22.4 	"/>
	<g>
		<g>
			<polygon id="SVGID_17_" class="st0" points="53,23.7 60.3,29.9 61,27.5 53.7,22.4 			"/>
		</g>
		<g>
			<g>
				<defs>
					<polygon id="SVGID_30_" points="53,23.7 60.3,29.9 61,27.5 53.7,22.4 					"/>
				</defs>
				<clipPath id="SVGID_32_">
					<use xlink:href="#SVGID_30_"  style="overflow:visible;"/>
				</clipPath>
				<polygon class="st8" points="58.8,32.1 47.8,27.9 55.2,20.2 66.2,24.4 				"/>
			</g>
		</g>
	</g>
	<polygon class="st0" points="20.3,5 29.8,9.2 31.1,8.4 23.2,4 	"/>
	<g>
		<g>
			<polygon id="SVGID_19_" class="st0" points="20.3,5 29.8,9.2 31.1,8.4 23.2,4 			"/>
		</g>
		<g>
			<g>
				<defs>
					<polygon id="SVGID_34_" points="20.3,5 29.8,9.2 31.1,8.4 23.2,4 					"/>
				</defs>
				<clipPath id="SVGID_36_">
					<use xlink:href="#SVGID_34_"  style="overflow:visible;"/>
				</clipPath>
				<polygon class="st9" points="28.2,12.3 16.6,7.7 23.2,0.9 34.8,5.3 				"/>
			</g>
		</g>
	</g>
	<polygon class="st0" points="12.2,7.3 26.4,10.8 28.2,9.9 16.8,5.9 	"/>
	<g>
		<g>
			<polygon id="SVGID_21_" class="st0" points="12.2,7.3 26.4,10.8 28.2,9.9 16.8,5.9 			"/>
		</g>
		<g>
			<g>
				<defs>
					<polygon id="SVGID_38_" points="12.2,7.3 26.4,10.8 28.2,9.9 16.8,5.9 					"/>
				</defs>
				<clipPath id="SVGID_40_">
					<use xlink:href="#SVGID_38_"  style="overflow:visible;"/>
				</clipPath>
				<polygon class="st10" points="24,15.4 8.8,9.5 16.5,1.5 31.7,7.2 				"/>
			</g>
		</g>
	</g>
	<g>
		<g>
			<polygon id="SVGID_23_" class="st0" points="51.1,27.1 58.3,37.6 59.4,33 52.2,25.1 			"/>
		</g>
	</g>
	<g>
		<g>
			<polygon id="SVGID_25_" class="st0" points="46,35 53,38.7 48.2,27.3 44.5,25.3 			"/>
		</g>
	</g>
	<polygon class="st0" points="35,29.2 40.3,31.9 41.6,23.7 38.8,22.2 	"/>
	<g>
		<g>
			<polygon id="SVGID_27_" class="st0" points="35,29.2 40.3,31.9 41.6,23.7 38.8,22.2 			"/>
		</g>
	</g>
	<g>
		<g>
			<polygon id="SVGID_29_" class="st0" points="25.1,23.8 30,26.4 36.4,20.9 33.9,19.4 			"/>
		</g>
	</g>
	<g>
		<g>
			<polygon id="SVGID_31_" class="st0" points="13.3,17.6 19.6,20.9 31.1,18 28,16.3 			"/>
		</g>
	</g>
	<g>
		<g>
			<polygon id="SVGID_33_" class="st0" points="0.5,10.8 5.5,13.4 24.2,14.3 21.8,12.8 23.6,12.1 5.5,9.4 			"/>
		</g>
	</g>
	<path class="st0" d="M37.4,2c0,0,3.7,0.7,3.9,2.2s0.6,3.7,0.6,3.7l-2.6-1.5L37.4,2z"/>
	<path class="st0" d="M44.3,6.1c0,0,2.6,0,2.8,1.7"/>
	<path class="st0" d="M49.7,9c0,0,2.4,0.2,2.6,1.5"/>
	<path class="st0" d="M54.8,12.1c0,0,2,0.6,2.9,1.7"/>
	<path class="st0" d="M61.6,16c0,0,3.5,0.7,2,2.4"/>
	<path class="st0" d="M63,20.2c0,0,0.7,1.5-0.6,1.8"/>
	<path class="st0" d="M61.9,23.7c0,0,0.6,1.5-0.6,1.8"/>
	<path class="st0" d="M61,27.5c0,0,0.9,1.8-0.7,2.4"/>
	<path class="st0" d="M59.6,33c0,0,1.1,4.4-1.3,4.6"/>
	<path class="st0" d="M46,35c0,0,3.9,4.6,7,3.7"/>
	<path class="st0" d="M35,29.2c0,0,1.1,3.1,5.1,2.8"/>
	<path class="st0" d="M25.1,23.8c0,0,1.1,3.1,5.1,2.8"/>
	<path class="st0" d="M13.3,17.6c0,0,2.4,3.7,6.2,3.3"/>
	<g>
		<g>
			<path id="SVGID_35_" class="st0" d="M5.5,13.4v-4C5.5,9.4-6.8,10.5,5.5,13.4"/>
		</g>
		<g>
			<g>
				<defs>
					<path id="SVGID_42_" d="M5.5,13.4v-4C5.5,9.4-6.8,10.5,5.5,13.4"/>
				</defs>
				<clipPath id="SVGID_44_">
					<use xlink:href="#SVGID_42_"  style="overflow:visible;"/>
				</clipPath>
				<rect x="-6.8" y="9.4" class="st11" width="12.3" height="4"/>
			</g>
		</g>
	</g>
	<g>
		<g>
			<path id="SVGID_37_" class="st0" d="M12.2,7.3l4.6-1.3c-1.1-0.2-1.8-0.2-2.6-0.2C11.1,5.7,12.2,7.3,12.2,7.3"/>
		</g>
		<g>
			<g>
				<defs>
					<path id="SVGID_45_" d="M12.2,7.3l4.6-1.3c-1.1-0.2-1.8-0.2-2.6-0.2C11.1,5.7,12.2,7.3,12.2,7.3"/>
				</defs>
				<clipPath id="SVGID_46_">
					<use xlink:href="#SVGID_45_"  style="overflow:visible;"/>
				</clipPath>
				<rect x="11.1" y="5.7" class="st12" width="5.7" height="1.7"/>
			</g>
		</g>
	</g>
	<g>
		<g>
			<path id="SVGID_39_" class="st0" d="M20.3,5L23.2,4c-1.5-0.6-2.4-0.7-2.8-0.7C18.8,3.3,20.3,5,20.3,5"/>
		</g>
		<g>
			<g>
				<defs>
					<path id="SVGID_47_" d="M20.3,5L23.2,4c-1.5-0.6-2.4-0.7-2.8-0.7C18.8,3.3,20.3,5,20.3,5"/>
				</defs>
				<clipPath id="SVGID_48_">
					<use xlink:href="#SVGID_47_"  style="overflow:visible;"/>
				</clipPath>
				<rect x="18.8" y="3.3" class="st13" width="4.2" height="1.7"/>
			</g>
		</g>
	</g>
	<g>
		<g>
			<path id="SVGID_41_" class="st0" d="M25.8,3.3l2.4-0.7C27.1,2,26.4,1.7,26,1.7C24.9,1.7,25.8,3.3,25.8,3.3"/>
		</g>
		<g>
			<g>
				<defs>
					<path id="SVGID_49_" d="M25.8,3.3l2.4-0.7C27.1,2,26.4,1.7,26,1.7C24.9,1.7,25.8,3.3,25.8,3.3"/>
				</defs>
				<clipPath id="SVGID_50_">
					<use xlink:href="#SVGID_49_"  style="overflow:visible;"/>
				</clipPath>
				<rect x="24.9" y="1.7" class="st14" width="3.3" height="1.5"/>
			</g>
		</g>
	</g>
	<g>
		<g>
			<path id="SVGID_43_" class="st0" d="M30.8,1.8l2.8-0.7C32.4,0.2,31.7,0,31.3,0C30.2,0,30.8,1.8,30.8,1.8"/>
		</g>
		<g>
			<g>
				<defs>
					<path id="SVGID_51_" d="M30.8,1.8l2.8-0.7C32.4,0.2,31.7,0,31.3,0C30.2,0,30.8,1.8,30.8,1.8"/>
				</defs>
				<clipPath id="SVGID_52_">
					<use xlink:href="#SVGID_51_"  style="overflow:visible;"/>
				</clipPath>
				<rect x="30.2" class="st15" width="3.1" height="1.8"/>
			</g>
		</g>
	</g>
	<g>
		<path class="st0" d="M73.5,20.2c0.2,0.7,0.4,1.3,0.6,1.7c0.6,0.7,1.7,1.1,2.9,1.1c0.9,0,1.5-0.2,2-0.2c0.9-0.4,1.5-1.1,1.5-2
			c0-0.6-0.2-0.9-0.7-1.3c-0.6-0.4-1.3-0.6-2.4-0.7l-1.8-0.4c-1.8-0.4-3.1-0.7-3.7-1.3c-1.1-0.7-1.7-2-1.7-3.7
			c0-1.5,0.6-2.8,1.7-3.9c1.1-1.1,2.8-1.5,5-1.5c1.8,0,3.3,0.6,4.6,1.5c1.3,0.9,2,2.4,2,4h-3.3c0-1.1-0.6-1.7-1.3-2.2
			c-0.6-0.4-1.3-0.4-2-0.4c-0.9,0-1.7,0.2-2.2,0.6c-0.6,0.4-0.9,0.9-0.9,1.5s0.4,1.1,0.9,1.3c0.4,0.2,1.1,0.4,2.2,0.7l2.9,0.7
			c1.1,0.4,2.2,0.7,2.8,1.3c0.9,0.7,1.5,2,1.5,3.5c0,1.5-0.6,2.8-1.8,3.9s-2.9,1.5-5.1,1.5s-4-0.6-5.3-1.5c-1.3-1.1-1.8-2.4-1.8-4.2
			L73.5,20.2L73.5,20.2z"/>
		<path class="st0" d="M91.3,8.4h4l6.1,16.9h-3.9l-1.1-3.5h-6.2l-1.1,3.5h-3.7L91.3,8.4z M91.1,18.9h4.2l-2.2-6.6L91.1,18.9z"/>
		<path class="st0" d="M103.4,8.4h12.1v2.9h-8.6v3.9h7.5v3.1h-7.5v7h-3.5C103.4,25.3,103.4,8.4,103.4,8.4z"/>
		<path class="st0" d="M130.2,11.4h-9V15h8.3V18h-8.3v4.4h9.4v2.9h-12.8V8.4h12.5V11.4z"/>
		<path class="st0" d="M145.6,8.4v2.9h-5.1v13.9h-3.5V11.4h-5V8.4H145.6z"/>
		<path class="st0" d="M157.3,8.4h4l-5.7,10.6v6.2h-3.5v-6.2l-5.9-10.6h4.2l3.5,7.3L157.3,8.4z"/>
		<path class="st0" d="M169.4,8.4h3.5v13.8h8.4v2.9h-11.9V8.4z"/>
		<path class="st0" d="M187,25.3h-3.7V8.4h3.5v16.9H187z"/>
		<path class="st0" d="M190.1,8.4h3.7l6.8,11.7V8.4h3.3v16.9h-3.5l-6.8-11.9v11.9h-3.3C190.1,25.3,190.1,8.4,190.1,8.4z"/>
		<path class="st0" d="M219.6,11.4h-9V15h8.3V18h-8.3v4.4h9.4v2.9h-12.8V8.4h12.3L219.6,11.4L219.6,11.4z"/>
	</g>
	<g>
		<path class="st0" d="M86,31.7c0.4,0,1.1-0.2,1.8-0.2c0.9,0,1.7,0.2,2.2,0.6c0.4,0.4,0.7,0.7,0.7,1.5s-0.6,1.5-1.3,1.7l0,0
			c0.7,0.2,1.7,0.7,1.7,2c0,0.7-0.4,1.1-0.7,1.7c-0.6,0.6-1.5,0.7-2.8,0.7c-0.7,0-1.3,0-1.7,0V31.7L86,31.7z M87.1,34.8H88
			c1.1,0,1.7-0.6,1.7-1.3c0-0.9-0.7-1.3-1.7-1.3c-0.6,0-0.7,0-0.9,0V34.8z M87.1,38.7c0.2,0,0.6,0,0.9,0c1.1,0,2-0.4,2-1.5
			s-0.9-1.5-2-1.5h-0.9V38.7L87.1,38.7z"/>
		<path class="st0" d="M93.5,32.1c0,0.4-0.2,0.6-0.7,0.6c-0.4,0-0.6-0.2-0.6-0.6c0-0.4,0.4-0.7,0.6-0.7
			C93.1,31.5,93.5,31.7,93.5,32.1z M92.2,39.4v-5.7h1.1v5.7H92.2L92.2,39.4z"/>
		<path class="st0" d="M99.9,33.7c0,0.4,0,0.9,0,1.5v3.3c0,1.3-0.2,2-0.7,2.6c-0.6,0.6-1.3,0.7-2,0.7s-1.5-0.2-1.8-0.6l0.2-0.7
			c0.4,0.2,0.9,0.4,1.7,0.4c1.1,0,1.8-0.6,1.8-2v-0.6l0,0c-0.4,0.6-0.9,0.9-1.8,0.9c-1.5,0-2.4-1.1-2.4-2.8c0-1.8,1.3-2.9,2.6-2.9
			c0.9,0,1.5,0.6,1.8,0.9l0,0v-0.9C99,33.7,99.9,33.7,99.9,33.7z M98.8,35.9c0-0.2,0-0.4,0-0.6c-0.2-0.6-0.7-1.1-1.5-1.1
			c-0.9,0-1.7,0.9-1.7,2.2c0,1.1,0.6,2,1.7,2c0.6,0,1.3-0.4,1.5-1.1c0-0.2,0-0.4,0-0.6V35.9L98.8,35.9z"/>
		<path class="st0" d="M103.9,31.7c0.6,0,1.3-0.2,2.2-0.2c1.5,0,2.6,0.4,3.1,0.9c0.7,0.7,1.1,1.5,1.1,2.8c0,1.3-0.4,2.4-1.1,3.1
			c-0.7,0.7-2,1.1-3.5,1.1c-0.7,0-1.3,0-1.8,0V31.7z M105,38.5c0.2,0,0.6,0,1.1,0c2.2,0,3.3-1.3,3.3-3.3c0-1.8-1.1-2.9-3.1-2.9
			c-0.6,0-0.9,0-1.3,0.2C105,32.5,105,38.5,105,38.5z"/>
		<path class="st0" d="M114.7,39.4v-0.7l0,0c-0.4,0.4-0.9,0.9-1.7,0.9c-1.1,0-1.7-0.7-1.7-1.7c0-1.3,1.3-2,3.3-2v-0.2
			c0-0.6-0.2-1.3-1.3-1.3c-0.6,0-1.1,0.2-1.5,0.4l-0.2-0.7c0.6-0.4,1.1-0.6,1.8-0.6c1.7,0,2.2,1.1,2.2,2.4v2c0,0.6,0,0.9,0,1.3
			L114.7,39.4L114.7,39.4z M114.7,36.5c-1.1,0-2.4,0.2-2.4,1.3c0,0.7,0.4,0.9,0.9,0.9c0.7,0,1.3-0.6,1.3-0.9c0-0.2,0-0.2,0-0.4v-0.9
			H114.7z"/>
		<path class="st0" d="M118.6,32.1v1.7h1.5v0.7h-1.5v3.1c0,0.7,0.2,1.1,0.7,1.1c0.4,0,0.6,0,0.6,0v0.7c-0.2,0-0.6,0.2-0.9,0.2
			c-0.6,0-0.9-0.2-1.1-0.4c-0.4-0.4-0.4-0.7-0.4-1.5v-3.1h-0.9v-0.7h0.9v-1.3L118.6,32.1z"/>
		<path class="st0" d="M124.3,39.4v-0.7l0,0c-0.4,0.4-0.9,0.9-1.7,0.9c-1.1,0-1.7-0.7-1.7-1.7c0-1.3,1.3-2,3.3-2v-0.2
			c0-0.6-0.2-1.3-1.3-1.3c-0.6,0-1.1,0.2-1.5,0.4l-0.2-0.7c0.6-0.4,1.1-0.6,1.8-0.6c1.7,0,2.2,1.1,2.2,2.4v2c0,0.6,0,0.9,0.2,1.3
			L124.3,39.4L124.3,39.4z M124.1,36.5c-1.1,0-2.4,0.2-2.4,1.3c0,0.7,0.4,0.9,0.9,0.9c0.7,0,1.3-0.6,1.3-0.9c0-0.2,0-0.2,0-0.4
			C124.1,37.4,124.1,36.5,124.1,36.5z"/>
		<path class="st0" d="M132.4,39.4v-0.7l0,0c-0.4,0.4-0.9,0.9-1.7,0.9c-1.1,0-1.7-0.7-1.7-1.7c0-1.3,1.3-2,3.3-2v-0.2
			c0-0.6-0.2-1.3-1.3-1.3c-0.6,0-1.1,0.2-1.5,0.4l-0.2-0.7c0.6-0.4,1.1-0.6,1.8-0.6c1.7,0,2.2,1.1,2.2,2.4v2c0,0.6,0,0.9,0.2,1.3
			L132.4,39.4L132.4,39.4z M132.2,36.5c-1.1,0-2.4,0.2-2.4,1.3c0,0.7,0.4,0.9,0.9,0.9c0.7,0,1.3-0.6,1.3-0.9c0-0.2,0-0.2,0-0.4
			C132.2,37.4,132.2,36.5,132.2,36.5z"/>
		<path class="st0" d="M134.9,35.6c0-0.7,0-1.3,0-1.8h0.7v0.9l0,0c0.4-0.7,1.1-1.1,2-1.1c1.3,0,2.4,1.1,2.4,2.9c0,2-1.3,2.9-2.6,2.9
			c-0.7,0-1.5-0.4-1.7-0.9l0,0v3.1h-1.1C134.7,41.6,134.7,35.6,134.9,35.6z M135.8,37c0,0.2,0,0.4,0,0.4c0.2,0.7,0.7,1.1,1.5,1.1
			c1.1,0,1.7-0.9,1.7-2.2c0-1.1-0.6-2-1.7-2c-0.7,0-1.3,0.6-1.5,1.3c0,0.2,0,0.2,0,0.4V37L135.8,37z"/>
		<path class="st0" d="M141.5,35.6c0-0.7,0-1.3,0-1.8h0.9v0.9l0,0c0.4-0.7,1.1-1.1,2-1.1c1.3,0,2.4,1.1,2.4,2.9c0,2-1.3,2.9-2.6,2.9
			c-0.7,0-1.5-0.4-1.7-0.9l0,0v3.1h-1.1V35.6L141.5,35.6z M142.4,37c0,0.2,0,0.4,0,0.4c0.2,0.7,0.7,1.1,1.5,1.1
			c1.1,0,1.7-0.9,1.7-2.2c0-1.1-0.6-2-1.7-2c-0.7,0-1.3,0.6-1.5,1.3c0,0.2,0,0.2,0,0.4V37L142.4,37z"/>
		<path class="st0" d="M148.1,31.2h1.1v8.3h-1.1V31.2z"/>
		<path class="st0" d="M152,32.1c0,0.4-0.2,0.6-0.7,0.6c-0.4,0-0.6-0.2-0.6-0.6c0-0.4,0.4-0.7,0.6-0.7C151.8,31.5,152,31.7,152,32.1
			z M150.9,39.4v-5.7h1.1v5.7H150.9L150.9,39.4z"/>
		<path class="st0" d="M154.2,36.7c0,1.5,0.9,2,2,2c0.7,0,1.1-0.2,1.5-0.4l0.2,0.7c-0.4,0.2-0.9,0.4-1.8,0.4c-1.7,0-2.8-1.1-2.8-2.8
			s1.1-3.1,2.6-3.1c1.8,0,2.4,1.7,2.4,2.8c0,0.2,0,0.4,0,0.6C158,36.7,154.2,36.7,154.2,36.7z M157.1,35.9c0-0.7-0.4-1.7-1.5-1.7
			s-1.5,0.9-1.7,1.7H157.1z"/>
		<path class="st0" d="M164.3,31.2V38c0,0.6,0,1.1,0,1.5h-0.9v-0.9l0,0c-0.4,0.6-1.1,1.1-2,1.1c-1.3,0-2.4-1.1-2.4-2.9
			s1.1-2.9,2.6-2.9c0.9,0,1.5,0.4,1.7,0.9l0,0v-3.5H164.3z M163.2,35.9c0-0.2,0-0.4,0-0.4c-0.2-0.7-0.7-1.1-1.5-1.1
			c-1.1,0-1.7,0.9-1.7,2.2c0,1.1,0.6,2,1.7,2c0.7,0,1.3-0.6,1.5-1.3c0-0.2,0-0.2,0-0.4C163.2,37,163.2,35.9,163.2,35.9z"/>
		<path class="st0" d="M169.8,32.1v1.7h1.5v0.7h-1.5v3.1c0,0.7,0.2,1.1,0.7,1.1c0.4,0,0.6,0,0.6,0v0.7c-0.2,0-0.6,0.2-0.9,0.2
			c-0.6,0-0.9-0.2-1.1-0.4c-0.4-0.4-0.4-0.7-0.4-1.5v-3.1h-0.9v-0.7h0.9v-1.3L169.8,32.1z"/>
		<path class="st0" d="M177.3,36.5c0,2-1.5,2.9-2.8,2.9c-1.5,0-2.8-1.1-2.8-2.9c0-1.8,1.3-2.9,2.8-2.9
			C176.2,33.6,177.3,34.8,177.3,36.5z M172.9,36.7c0,1.3,0.7,2.2,1.7,2.2s1.7-0.9,1.7-2.2c0-0.9-0.6-2.2-1.7-2.2
			C173.4,34.5,172.9,35.6,172.9,36.7z"/>
		<path class="st0" d="M182.4,36.9l-0.9,2.6h-1.1l2.6-7.9h1.3l2.8,7.9h-1.1l-0.9-2.6H182.4z M185,36.1l-0.7-2.2
			c-0.2-0.6-0.4-0.9-0.4-1.5l0,0c-0.2,0.6-0.2,0.9-0.4,1.5l-0.7,2.2H185z"/>
		<path class="st0" d="M188.5,33.7l1.1,3.1c0.2,0.6,0.4,0.9,0.6,1.5l0,0c0.2-0.6,0.4-0.9,0.6-1.5l1.1-3.1h1.1l-2.2,5.7h-0.9
			l-2.2-5.7H188.5z"/>
		<path class="st0" d="M194.7,32.1c0,0.4-0.2,0.6-0.7,0.6c-0.4,0-0.6-0.2-0.6-0.6c0-0.4,0.4-0.7,0.6-0.7
			C194.5,31.5,194.7,31.7,194.7,32.1z M193.6,39.4v-5.7h1.1v5.7H193.6L193.6,39.4z"/>
		<path class="st0" d="M199.5,39.4v-0.7l0,0c-0.4,0.4-0.9,0.9-1.7,0.9c-1.1,0-1.7-0.7-1.7-1.7c0-1.3,1.3-2,3.3-2v-0.2
			c0-0.6-0.2-1.3-1.3-1.3c-0.6,0-1.1,0.2-1.5,0.4l-0.2-0.7c0.6-0.4,1.1-0.6,1.8-0.6c1.7,0,2.2,1.1,2.2,2.4v2c0,0.6,0,0.9,0.2,1.3
			L199.5,39.4L199.5,39.4z M199.3,36.5c-1.1,0-2.4,0.2-2.4,1.3c0,0.7,0.4,0.9,0.9,0.9c0.7,0,1.3-0.6,1.3-0.9c0-0.2,0-0.2,0-0.4
			C199.3,37.4,199.3,36.5,199.3,36.5z"/>
		<path class="st0" d="M203.1,32.1v1.7h1.5v0.7h-1.5v3.1c0,0.7,0.2,1.1,0.7,1.1c0.4,0,0.6,0,0.6,0v0.7c-0.2,0-0.6,0.2-0.9,0.2
			c-0.6,0-0.9-0.2-1.1-0.4c-0.4-0.4-0.4-0.7-0.4-1.5v-3.1h-0.9v-0.7h0.9v-1.3L203.1,32.1z"/>
		<path class="st0" d="M206.8,32.1c0,0.4-0.2,0.6-0.7,0.6c-0.4,0-0.6-0.2-0.6-0.6c0-0.4,0.4-0.7,0.6-0.7
			C206.6,31.5,206.8,31.7,206.8,32.1z M205.7,39.4v-5.7h1.1v5.7H205.7L205.7,39.4z"/>
		<path class="st0" d="M213.6,36.5c0,2-1.5,2.9-2.8,2.9c-1.5,0-2.8-1.1-2.8-2.9c0-1.8,1.3-2.9,2.8-2.9
			C212.5,33.6,213.6,34.8,213.6,36.5z M209,36.7c0,1.3,0.7,2.2,1.7,2.2s1.7-0.9,1.7-2.2c0-0.9-0.6-2.2-1.7-2.2S209,35.6,209,36.7z"
			/>
		<path class="st0" d="M214.9,35.2c0-0.6,0-1.1,0-1.5h0.9v0.9l0,0c0.4-0.6,0.9-1.1,1.8-1.1c0.7,0,2,0.6,2,2.4v3.3h-1.1v-3.3
			c0-0.9-0.4-1.7-1.3-1.7c-0.7,0-1.3,0.6-1.5,1.1c0,0.2,0,0.4,0,0.6v3.5h-1.1v-4.2H214.9z"/>
	</g>
</g>
</svg>
